<svg xmlns="http://www.w3.org/2000/svg" viewBox="0 0 100 100">
  <!-- Background -->
  <rect width="100" height="100" fill="#e6f4ea" rx="15" />
  
  <!-- Book -->
  <path d="M25 25 L75 25 L75 75 L25 75 Z" fill="#c8e6c9" stroke="#4caf50" stroke-width="2" rx="3" />
  
  <!-- Book Spine -->
  <rect x="25" y="25" width="10" height="50" fill="#2e7d32" rx="2" />
  
  <!-- Pages -->
  <line x1="40" y1="30" x2="70" y2="30" stroke="#388e3c" stroke-width="1.5" />
  <line x1="40" y1="40" x2="70" y2="40" stroke="#388e3c" stroke-width="1.5" />
  <line x1="40" y1="50" x2="70" y2="50" stroke="#388e3c" stroke-width="1.5" />
  <line x1="40" y1="60" x2="70" y2="60" stroke="#388e3c" stroke-width="1.5" />
  <line x1="40" y1="70" x2="70" y2="70" stroke="#388e3c" stroke-width="1.5" />
  
  <!-- Islamic Crescent -->
  <path d="M50 15 
           A10 10 0 1 1 50 35
           A5 5 0 1 0 50 15Z" fill="#4caf50" />
  
  <!-- Learning Branches -->
  <path d="M15 40 Q30 25 45 40" stroke="#2e7d32" stroke-width="2" fill="none" />
  <path d="M85 50 Q70 35 55 50" stroke="#2e7d32" stroke-width="2" fill="none" />
  
  <!-- Leaves -->
  <path d="M30 45 Q25 35 35 35 Q40 40 30 45Z" fill="#388e3c" />
  <path d="M65 55 Q70 45 60 45 Q55 50 65 55Z" fill="#388e3c" />
</svg>